<svg xmlns="http://www.w3.org/2000/svg" xmlns:xlink="http://www.w3.org/1999/xlink" xmlns:serif="http://www.serif.com/" viewBox="0 0 32 40" version="1.1" xml:space="preserve" style="" x="0px" y="0px" fill-rule="evenodd" clip-rule="evenodd" stroke-linejoin="round" stroke-miterlimit="2"><rect serif:id="circuit trace board ironing" x="0" y="0" width="32" height="32" style="" fill="none"/><path d="M3.984,2.986c-0.547,0.009 -0.992,0.466 -0.984,1.014l0,8c0,0.265 0.106,0.52 0.293,0.707l7.707,7.707l0,7.586c0,0.005 0,0.009 0,0.014c0,0.549 0.451,1 1,1c0.549,0 1,-0.451 1,-1c0,-0.005 0,-0.009 0,-0.014l0,-8c0,-0.265 -0.106,-0.52 -0.293,-0.707l-7.707,-7.707l0,-7.586c0,-0.005 0,-0.009 0,-0.014c0,-0.548 -0.451,-1 -1,-1c-0.005,0 -0.01,0 -0.016,0Zm4,18c-0.547,0.009 -0.992,0.466 -0.984,1.014l0,6c0,0.005 0,0.009 0,0.014c0,0.549 0.451,1 1,1c0.549,0 1,-0.451 1,-1c0,-0.005 0,-0.009 0,-0.014l0,-6c0,-0.005 0,-0.009 0,-0.014c0,-0.548 -0.451,-1 -1,-1c-0.005,0 -0.01,0 -0.016,0Zm16,0c-0.547,0.009 -0.992,0.466 -0.984,1.014l0,6c0,0.005 0,0.009 0,0.014c0,0.549 0.451,1 1,1c0.549,0 1,-0.451 1,-1c0,-0.005 0,-0.009 0,-0.014l0,-6c0,-0.005 0,-0.009 0,-0.014c0,-0.548 -0.451,-1 -1,-1c-0.005,0 -0.01,0 -0.016,0Zm-4,-2c-0.547,0.009 -0.992,0.466 -0.984,1.014l0,8c0,0.005 0,0.009 0,0.014c0,0.549 0.451,1 1,1c0.549,0 1,-0.451 1,-1c0,-0.005 0,-0.009 0,-0.014l0,-8c0,-0.005 0,-0.009 0,-0.014c0,-0.548 -0.451,-1 -1,-1c-0.005,0 -0.01,0 -0.016,0Zm-16,-2c-0.547,0.009 -0.992,0.466 -0.984,1.014l0,10c0,0.005 0,0.009 0,0.014c0,0.549 0.451,1 1,1c0.549,0 1,-0.451 1,-1c0,-0.005 0,-0.009 0,-0.014l0,-10c0,-0.005 0,-0.009 0,-0.014c0,-0.548 -0.451,-1 -1,-1c-0.005,0 -0.01,0 -0.016,0Zm12,-4c-0.547,0.009 -0.992,0.466 -0.984,1.014l0,14c0,0.005 0,0.009 0,0.014c0,0.549 0.451,1 1,1c0.549,0 1,-0.451 1,-1c0,-0.005 0,-0.009 0,-0.014l0,-14c0,-0.005 0,-0.009 0,-0.014c0,-0.548 -0.451,-1 -1,-1c-0.005,0 -0.01,0 -0.016,0Zm12,0c-0.547,0.009 -0.992,0.466 -0.984,1.014l0,14c0,0.005 0,0.009 0,0.014c0,0.549 0.451,1 1,1c0.549,0 1,-0.451 1,-1c0,-0.005 0,-0.009 0,-0.014l0,-14c0,-0.005 0,-0.009 0,-0.014c0,-0.548 -0.451,-1 -1,-1c-0.005,0 -0.01,0 -0.016,0Zm-8,-10c-0.547,0.009 -0.992,0.466 -0.984,1.014l0,10c0,0.265 0.106,0.52 0.293,0.707l4,4c0.188,0.196 0.449,0.308 0.721,0.308c0.549,0 1.001,-0.452 1.001,-1.001c0,-0.272 -0.112,-0.533 -0.308,-0.721l-3.707,-3.707l0,-9.586c0,-0.005 0,-0.009 0,-0.014c0,-0.548 -0.451,-1 -1,-1c-0.005,0 -0.01,0 -0.016,0Zm-4,0c-0.547,0.009 -0.992,0.466 -0.984,1.014l0,3.586l-3.707,3.707c-0.187,0.187 -0.293,0.442 -0.293,0.707l0,2c0,0.005 0,0.009 0,0.014c0,0.549 0.451,1 1,1c0.549,0 1,-0.451 1,-1c0,-0.005 0,-0.009 0,-0.014l0,-1.586l3.707,-3.707c0.187,-0.187 0.293,-0.442 0.293,-0.707l0,-4c0,-0.005 0,-0.009 0,-0.014c0,-0.548 -0.451,-1 -1,-1c-0.005,0 -0.01,0 -0.016,0Zm12,0c-0.547,0.009 -0.992,0.466 -0.984,1.014l0,3.586l-3.707,3.707c-0.196,0.188 -0.308,0.449 -0.308,0.721c0,0.549 0.452,1.001 1.001,1.001c0.272,0 0.533,-0.112 0.721,-0.308l4,-4c0.187,-0.187 0.293,-0.442 0.293,-0.707l0,-4c0,-0.005 0,-0.009 0,-0.014c0,-0.548 -0.451,-1 -1,-1c-0.005,0 -0.01,0 -0.016,0Zm-20,0c-0.547,0.009 -0.992,0.466 -0.984,1.014l0,6c0,0.005 0,0.009 0,0.014c0,0.549 0.451,1 1,1c0.549,0 1,-0.451 1,-1c0,-0.005 0,-0.009 0,-0.014l0,-6c0,-0.005 0,-0.009 0,-0.014c0,-0.548 -0.451,-1 -1,-1c-0.005,0 -0.01,0 -0.016,0Zm4,0c-0.547,0.009 -0.992,0.466 -0.984,1.014l0,2c0,0.005 0,0.009 0,0.014c0,0.549 0.451,1 1,1c0.549,0 1,-0.451 1,-1c0,-0.005 0,-0.009 0,-0.014l0,-2c0,-0.005 0,-0.009 0,-0.014c0,-0.548 -0.451,-1 -1,-1c-0.005,0 -0.01,0 -0.016,0Zm12,0c-0.547,0.009 -0.992,0.466 -0.984,1.014l0,2c0,0.005 0,0.009 0,0.014c0,0.549 0.451,1 1,1c0.549,0 1,-0.451 1,-1c0,-0.005 0,-0.009 0,-0.014l0,-2c0,-0.005 0,-0.009 0,-0.014c0,-0.548 -0.451,-1 -1,-1c-0.005,0 -0.01,0 -0.016,0Z" style="" fill-rule="nonzero"/><text x="0" y="47" fill="#000000" font-size="5px" font-weight="bold" font-family="'Helvetica Neue', Helvetica, Arial-Unicode, Arial, Sans-serif">Created by Bombasticon Studio</text><text x="0" y="52" fill="#000000" font-size="5px" font-weight="bold" font-family="'Helvetica Neue', Helvetica, Arial-Unicode, Arial, Sans-serif">from the Noun Project</text></svg>